<svg width="30" height="30" viewBox="0 0 30 30" fill="none" xmlns="http://www.w3.org/2000/svg">
<g clip-path="url(#clip0_354_67352)">
<path d="M14.07 15.85C14.84 14.46 16.32 13.64 17.18 12.41C18.09 11.12 17.58 8.71 15 8.71C13.31 8.71 12.48 9.99 12.13 11.05L9.54004 9.96C10.25 7.83 12.18 6 14.99 6C17.34 6 18.95 7.07 19.77 8.41C20.47 9.56 20.88 11.71 19.8 13.31C18.6 15.08 17.45 15.62 16.83 16.76C16.58 17.22 16.48 17.52 16.48 19H13.59C13.58 18.22 13.46 16.95 14.07 15.85ZM17 23C17 24.1 16.1 25 15 25C13.9 25 13 24.1 13 23C13 21.9 13.9 21 15 21C16.1 21 17 21.9 17 23Z" fill="black"/>
</g>
<circle cx="15" cy="15" r="14.25" stroke="black" stroke-width="1.5"/>
<defs>
<clipPath id="clip0_354_67352">
<rect width="24" height="24" fill="white" transform="translate(3 3)"/>
</clipPath>
</defs>
</svg>
