<svg width="30" height="30" viewBox="0 0 30 30" fill="none" xmlns="http://www.w3.org/2000/svg">
<g clip-path="url(#clip0_354_67353)">
<path d="M15.0002 5C11.6001 5 8.83398 7.76614 8.83398 11.1662H10.0711C10.0711 8.44829 12.2823 6.23711 15.0002 6.23711C17.7181 6.23711 19.9293 8.44829 19.9293 11.1662C19.9293 11.779 19.8183 12.3768 19.5993 12.9431L16.1995 21.7352C15.7304 22.948 14.5418 23.7629 13.2416 23.7629H11.102V25H13.2416C14.1488 25 15.0202 24.7263 15.7617 24.2086C16.4855 23.7031 17.0359 23.0021 17.3534 22.1814L20.7532 13.3894C21.0274 12.6802 21.1665 11.9322 21.1665 11.1663C21.1664 7.76614 18.4003 5 15.0002 5Z" fill="black"/>
<path d="M11.9263 18.054H11.1016V19.2912H11.9263C13.3936 19.2912 14.5874 18.0974 14.5874 16.6301C14.5874 15.3756 13.7149 14.3211 12.5449 14.0416V11.1662C12.5449 9.81251 13.6461 8.71123 14.9997 8.71123C16.3534 8.71123 17.4546 9.81251 17.4546 11.1661H18.6917C18.6917 9.13033 17.0355 7.47412 14.9997 7.47412C12.964 7.47412 11.3077 9.13033 11.3077 11.1661V15.2061H11.9263C12.7115 15.2061 13.3503 15.8448 13.3503 16.63C13.3503 17.4152 12.7115 18.054 11.9263 18.054Z" fill="black"/>
</g>
<circle cx="15" cy="15" r="14.25" stroke="black" stroke-width="1.5"/>
<defs>
<clipPath id="clip0_354_67353">
<rect width="20" height="20" fill="white" transform="translate(5 5)"/>
</clipPath>
</defs>
</svg>
